<svg xmlns="http://www.w3.org/2000/svg" width="900" height="600" viewBox="0 0 900 600"><defs><linearGradient id="g1" x1="0" y1="0" x2="0" y2="1"><stop offset="0" stop-color="#475569"/><stop offset="1" stop-color="#1E293B"/></linearGradient><linearGradient id="g2" x1="0" y1="0" x2="0" y2="1"><stop offset="0" stop-color="#059669"/><stop offset="1" stop-color="#064E3B"/></linearGradient></defs><rect x="0.5" y="0.5" width="899" height="599" rx="16" fill="#FFFFFF" stroke="#E4EBE7"/><rect x="212.5" y="21.5" width="240.0" height="48.0" rx="24.0" fill="#0F172A" opacity="0.08"/><rect x="210.0" y="18.0" width="240.0" height="48.0" rx="24.0" fill="url(#g1)"/><text x="330.0" y="46.5" font-family="'Segoe UI', 'Helvetica Neue', Helvetica, Arial, sans-serif" font-size="14" fill="#FFFFFF" text-anchor="middle" font-weight="bold" xml:space="preserve">Request with Bearer JWT</text><path d="M330.0,68.0 L330.0,96.0" fill="none" stroke="#64748B" stroke-width="2.2" stroke-linejoin="round" stroke-linecap="round"/><polygon points="330.0,96.0 325.9,86.9 334.1,86.9" fill="#64748B"/><polygon points="332.5,99.5 437.5,143.5 332.5,187.5 227.5,143.5" fill="#0F172A" opacity="0.08"/><polygon points="330.0,96.0 435.0,140.0 330.0,184.0 225.0,140.0" fill="#FEF3C7" stroke="#D97706" stroke-width="1.8" stroke-linejoin="round"/><text x="330.0" y="136.2" font-family="'Segoe UI', 'Helvetica Neue', Helvetica, Arial, sans-serif" font-size="12.5" fill="#78350F" text-anchor="middle" font-weight="bold" xml:space="preserve">Signature valid,</text><text x="330.0" y="151.5" font-family="'Segoe UI', 'Helvetica Neue', Helvetica, Arial, sans-serif" font-size="12.5" fill="#78350F" text-anchor="middle" font-weight="bold" xml:space="preserve">not expired?</text><path d="M435.0,140.0 L558.0,140.0" fill="none" stroke="#DC2626" stroke-width="2.2" stroke-linejoin="round" stroke-linecap="round"/><polygon points="558.0,140.0 548.9,144.1 548.9,135.9" fill="#DC2626"/><rect x="507.2" y="117.5" width="25.5" height="15.9" rx="7.699999999999999" fill="#FFFFFF" stroke="#DC2626" stroke-width="1"/><text x="520.0" y="129.7" font-family="'Segoe UI', 'Helvetica Neue', Helvetica, Arial, sans-serif" font-size="11" fill="#DC2626" text-anchor="middle" font-weight="bold" xml:space="preserve">no</text><rect x="562.5" y="113.5" width="320.0" height="51.6" rx="8" fill="#0F172A" opacity="0.08"/><rect x="560.0" y="110.0" width="320.0" height="51.6" rx="8" fill="#FEE2E2" stroke="#DC2626" stroke-width="1.5"/><text x="570.0" y="131.0" font-family="'Segoe UI', 'Helvetica Neue', Helvetica, Arial, sans-serif" font-size="13" fill="#7F1D1D" text-anchor="start" font-weight="bold" xml:space="preserve">401 Unauthorized</text><text x="570.0" y="147.8" font-family="'Segoe UI', 'Helvetica Neue', Helvetica, Arial, sans-serif" font-size="12" fill="#1F2937" text-anchor="start" xml:space="preserve">Missing, forged or expired token</text><path d="M330.0,184.0 L330.0,204.0" fill="none" stroke="#059669" stroke-width="2.2" stroke-linejoin="round" stroke-linecap="round"/><polygon points="330.0,204.0 325.9,194.9 334.1,194.9" fill="#059669"/><rect x="339.0" y="188.6" width="30.0" height="15.9" rx="7.699999999999999" fill="#FFFFFF" stroke="#059669" stroke-width="1"/><text x="354.0" y="200.7" font-family="'Segoe UI', 'Helvetica Neue', Helvetica, Arial, sans-serif" font-size="11" fill="#059669" text-anchor="middle" font-weight="bold" xml:space="preserve">yes</text><polygon points="332.5,209.5 437.5,253.5 332.5,297.5 227.5,253.5" fill="#0F172A" opacity="0.08"/><polygon points="330.0,206.0 435.0,250.0 330.0,294.0 225.0,250.0" fill="#FEF3C7" stroke="#D97706" stroke-width="1.8" stroke-linejoin="round"/><text x="330.0" y="246.2" font-family="'Segoe UI', 'Helvetica Neue', Helvetica, Arial, sans-serif" font-size="12.5" fill="#78350F" text-anchor="middle" font-weight="bold" xml:space="preserve">Account still</text><text x="330.0" y="261.5" font-family="'Segoe UI', 'Helvetica Neue', Helvetica, Arial, sans-serif" font-size="12.5" fill="#78350F" text-anchor="middle" font-weight="bold" xml:space="preserve">enabled?</text><path d="M435.0,250.0 L558.0,250.0" fill="none" stroke="#DC2626" stroke-width="2.2" stroke-linejoin="round" stroke-linecap="round"/><polygon points="558.0,250.0 548.9,254.1 548.9,245.9" fill="#DC2626"/><rect x="507.2" y="227.6" width="25.5" height="15.9" rx="7.699999999999999" fill="#FFFFFF" stroke="#DC2626" stroke-width="1"/><text x="520.0" y="239.7" font-family="'Segoe UI', 'Helvetica Neue', Helvetica, Arial, sans-serif" font-size="11" fill="#DC2626" text-anchor="middle" font-weight="bold" xml:space="preserve">no</text><rect x="562.5" y="223.5" width="320.0" height="51.6" rx="8" fill="#0F172A" opacity="0.08"/><rect x="560.0" y="220.0" width="320.0" height="51.6" rx="8" fill="#FEE2E2" stroke="#DC2626" stroke-width="1.5"/><text x="570.0" y="241.0" font-family="'Segoe UI', 'Helvetica Neue', Helvetica, Arial, sans-serif" font-size="13" fill="#7F1D1D" text-anchor="start" font-weight="bold" xml:space="preserve">401 Unauthorized</text><text x="570.0" y="257.8" font-family="'Segoe UI', 'Helvetica Neue', Helvetica, Arial, sans-serif" font-size="12" fill="#1F2937" text-anchor="start" xml:space="preserve">Disabling an account cuts off its tokens at once</text><path d="M330.0,294.0 L330.0,314.0" fill="none" stroke="#059669" stroke-width="2.2" stroke-linejoin="round" stroke-linecap="round"/><polygon points="330.0,314.0 325.9,304.9 334.1,304.9" fill="#059669"/><rect x="339.0" y="298.6" width="30.0" height="15.9" rx="7.699999999999999" fill="#FFFFFF" stroke="#059669" stroke-width="1"/><text x="354.0" y="310.6" font-family="'Segoe UI', 'Helvetica Neue', Helvetica, Arial, sans-serif" font-size="11" fill="#059669" text-anchor="middle" font-weight="bold" xml:space="preserve">yes</text><polygon points="332.5,319.5 437.5,363.5 332.5,407.5 227.5,363.5" fill="#0F172A" opacity="0.08"/><polygon points="330.0,316.0 435.0,360.0 330.0,404.0 225.0,360.0" fill="#FEF3C7" stroke="#D97706" stroke-width="1.8" stroke-linejoin="round"/><text x="330.0" y="356.2" font-family="'Segoe UI', 'Helvetica Neue', Helvetica, Arial, sans-serif" font-size="12.5" fill="#78350F" text-anchor="middle" font-weight="bold" xml:space="preserve">Role has the endpoint's</text><text x="330.0" y="371.5" font-family="'Segoe UI', 'Helvetica Neue', Helvetica, Arial, sans-serif" font-size="12.5" fill="#78350F" text-anchor="middle" font-weight="bold" xml:space="preserve">permission?</text><path d="M435.0,360.0 L558.0,360.0" fill="none" stroke="#DC2626" stroke-width="2.2" stroke-linejoin="round" stroke-linecap="round"/><polygon points="558.0,360.0 548.9,364.1 548.9,355.9" fill="#DC2626"/><rect x="507.2" y="337.6" width="25.5" height="15.9" rx="7.699999999999999" fill="#FFFFFF" stroke="#DC2626" stroke-width="1"/><text x="520.0" y="349.6" font-family="'Segoe UI', 'Helvetica Neue', Helvetica, Arial, sans-serif" font-size="11" fill="#DC2626" text-anchor="middle" font-weight="bold" xml:space="preserve">no</text><rect x="562.5" y="333.5" width="320.0" height="51.6" rx="8" fill="#0F172A" opacity="0.08"/><rect x="560.0" y="330.0" width="320.0" height="51.6" rx="8" fill="#FEE2E2" stroke="#DC2626" stroke-width="1.5"/><text x="570.0" y="351.0" font-family="'Segoe UI', 'Helvetica Neue', Helvetica, Arial, sans-serif" font-size="13" fill="#7F1D1D" text-anchor="start" font-weight="bold" xml:space="preserve">403 Forbidden</text><text x="570.0" y="367.8" font-family="'Segoe UI', 'Helvetica Neue', Helvetica, Arial, sans-serif" font-size="12" fill="#1F2937" text-anchor="start" xml:space="preserve">e.g. an employee calling upload</text><path d="M330.0,404.0 L330.0,424.0" fill="none" stroke="#059669" stroke-width="2.2" stroke-linejoin="round" stroke-linecap="round"/><polygon points="330.0,424.0 325.9,414.9 334.1,414.9" fill="#059669"/><rect x="339.0" y="408.6" width="30.0" height="15.9" rx="7.699999999999999" fill="#FFFFFF" stroke="#059669" stroke-width="1"/><text x="354.0" y="420.6" font-family="'Segoe UI', 'Helvetica Neue', Helvetica, Arial, sans-serif" font-size="11" fill="#059669" text-anchor="middle" font-weight="bold" xml:space="preserve">yes</text><polygon points="332.5,429.5 437.5,473.5 332.5,517.5 227.5,473.5" fill="#0F172A" opacity="0.08"/><polygon points="330.0,426.0 435.0,470.0 330.0,514.0 225.0,470.0" fill="#FEF3C7" stroke="#D97706" stroke-width="1.8" stroke-linejoin="round"/><text x="330.0" y="466.2" font-family="'Segoe UI', 'Helvetica Neue', Helvetica, Arial, sans-serif" font-size="12.5" fill="#78350F" text-anchor="middle" font-weight="bold" xml:space="preserve">Owner, READ grant</text><text x="330.0" y="481.5" font-family="'Segoe UI', 'Helvetica Neue', Helvetica, Arial, sans-serif" font-size="12.5" fill="#78350F" text-anchor="middle" font-weight="bold" xml:space="preserve">or ADMIN?</text><path d="M435.0,470.0 L558.0,470.0" fill="none" stroke="#DC2626" stroke-width="2.2" stroke-linejoin="round" stroke-linecap="round"/><polygon points="558.0,470.0 548.9,474.1 548.9,465.9" fill="#DC2626"/><rect x="507.2" y="447.6" width="25.5" height="15.9" rx="7.699999999999999" fill="#FFFFFF" stroke="#DC2626" stroke-width="1"/><text x="520.0" y="459.6" font-family="'Segoe UI', 'Helvetica Neue', Helvetica, Arial, sans-serif" font-size="11" fill="#DC2626" text-anchor="middle" font-weight="bold" xml:space="preserve">no</text><rect x="562.5" y="443.5" width="320.0" height="51.6" rx="8" fill="#0F172A" opacity="0.08"/><rect x="560.0" y="440.0" width="320.0" height="51.6" rx="8" fill="#FEE2E2" stroke="#DC2626" stroke-width="1.5"/><text x="570.0" y="461.0" font-family="'Segoe UI', 'Helvetica Neue', Helvetica, Arial, sans-serif" font-size="13" fill="#7F1D1D" text-anchor="start" font-weight="bold" xml:space="preserve">403 Forbidden</text><text x="570.0" y="477.8" font-family="'Segoe UI', 'Helvetica Neue', Helvetica, Arial, sans-serif" font-size="12" fill="#1F2937" text-anchor="start" xml:space="preserve">One document: 403. Lists and search: left out, totals too</text><path d="M330.0,514.0 L330.0,530.0" fill="none" stroke="#059669" stroke-width="2.2" stroke-linejoin="round" stroke-linecap="round"/><polygon points="330.0,530.0 325.9,520.9 334.1,520.9" fill="#059669"/><rect x="339.0" y="516.5" width="30.0" height="15.9" rx="7.699999999999999" fill="#FFFFFF" stroke="#059669" stroke-width="1"/><text x="354.0" y="528.6" font-family="'Segoe UI', 'Helvetica Neue', Helvetica, Arial, sans-serif" font-size="11" fill="#059669" text-anchor="middle" font-weight="bold" xml:space="preserve">yes</text><rect x="192.5" y="535.5" width="280.0" height="50.0" rx="25.0" fill="#0F172A" opacity="0.08"/><rect x="190.0" y="532.0" width="280.0" height="50.0" rx="25.0" fill="url(#g2)"/><text x="330.0" y="561.4" font-family="'Segoe UI', 'Helvetica Neue', Helvetica, Arial, sans-serif" font-size="13.5" fill="#FFFFFF" text-anchor="middle" font-weight="bold" xml:space="preserve">Controller → service → databases</text><path d="M182,100 H172 V290 H182" fill="none" stroke="#D97706" stroke-width="2" stroke-linejoin="round" stroke-linecap="round"/><text x="20.0" y="175.0" font-family="'Segoe UI', 'Helvetica Neue', Helvetica, Arial, sans-serif" font-size="12.5" fill="#78350F" text-anchor="start" font-weight="bold" xml:space="preserve">JWT filter</text><text x="20.0" y="192.0" font-family="'Segoe UI', 'Helvetica Neue', Helvetica, Arial, sans-serif" font-size="11.5" fill="#1F2937" text-anchor="start" xml:space="preserve">Runs on every request</text><text x="20.0" y="207.2" font-family="'Segoe UI', 'Helvetica Neue', Helvetica, Arial, sans-serif" font-size="11.5" fill="#1F2937" text-anchor="start" xml:space="preserve">before any controller</text><path d="M182,320 H172 V400 H182" fill="none" stroke="#7C3AED" stroke-width="2" stroke-linejoin="round" stroke-linecap="round"/><text x="20.0" y="340.0" font-family="'Segoe UI', 'Helvetica Neue', Helvetica, Arial, sans-serif" font-size="12.5" fill="#5B21B6" text-anchor="start" font-weight="bold" xml:space="preserve">@PreAuthorize</text><text x="20.0" y="357.0" font-family="'Segoe UI', 'Helvetica Neue', Helvetica, Arial, sans-serif" font-size="11.5" fill="#1F2937" text-anchor="start" xml:space="preserve">Permission named on</text><text x="20.0" y="372.2" font-family="'Segoe UI', 'Helvetica Neue', Helvetica, Arial, sans-serif" font-size="11.5" fill="#1F2937" text-anchor="start" xml:space="preserve">each endpoint</text><path d="M182,430 H172 V510 H182" fill="none" stroke="#2563EB" stroke-width="2" stroke-linejoin="round" stroke-linecap="round"/><text x="20.0" y="450.0" font-family="'Segoe UI', 'Helvetica Neue', Helvetica, Arial, sans-serif" font-size="12.5" fill="#1E3A8A" text-anchor="start" font-weight="bold" xml:space="preserve">DocumentAccessService</text><text x="20.0" y="467.0" font-family="'Segoe UI', 'Helvetica Neue', Helvetica, Arial, sans-serif" font-size="11.5" fill="#1F2937" text-anchor="start" xml:space="preserve">The single document read</text><text x="20.0" y="482.2" font-family="'Segoe UI', 'Helvetica Neue', Helvetica, Arial, sans-serif" font-size="11.5" fill="#1F2937" text-anchor="start" xml:space="preserve">rule</text></svg>